<svg xmlns="http://www.w3.org/2000/svg" width="324" height="192" fill="none" viewBox="0 0 324 192">
    <path fill="#B3B3B3" fill-rule="evenodd" d="M274.5 64.5c5.799 0 10.5 4.701 10.5 10.5s-4.701 10.5-10.5 10.5h33c5.799 0 10.5 4.701 10.5 10.5s-4.701 10.5-10.5 10.5H279c-5.799 0-10.5 4.701-10.5 10.5s4.701 10.5 10.5 10.5h9c5.799 0 10.5 4.701 10.5 10.5s-4.701 10.5-10.5 10.5h-78c-.772 0-1.525-.083-2.25-.242-.725.159-1.478.242-2.25.242H69c-5.799 0-10.5-4.701-10.5-10.5s4.701-10.5 10.5-10.5H10.5C4.701 127.5 0 122.799 0 117s4.701-10.5 10.5-10.5h60c5.799 0 10.5-4.701 10.5-10.5s-4.701-10.5-10.5-10.5H33c-5.799 0-10.5-4.701-10.5-10.5S27.201 64.5 33 64.5h241.5zm39 63c5.799 0 10.5 4.701 10.5 10.5s-4.701 10.5-10.5 10.5S303 143.799 303 138s4.701-10.5 10.5-10.5z" clip-rule="evenodd" opacity=".1"/>
    <path fill="#F7F7F7" fill-rule="evenodd" d="M220.22 14.132H106.183c-4.496 0-8.145 3.646-8.145 8.145V168.8c0 4.499 3.649 8.146 8.145 8.146H220.22c4.499 0 8.145-3.647 8.145-8.146V22.277c0-4.499-3.646-8.145-8.145-8.145z" clip-rule="evenodd"/>
    <path fill="#fff" fill-rule="evenodd" d="M214.789 14.036H106.183c-4.496 0-8.145 3.65-8.145 8.146v141.18h108.606c4.499 0 8.145-3.647 8.145-8.146V14.036z" clip-rule="evenodd"/>
    <path fill="#D9D9D9" fill-rule="evenodd" d="M106.183 16.073c-3.367 0-6.109 2.745-6.109 6.109V168.8c0 3.369 2.742 6.109 6.109 6.109H220.22c3.366 0 6.109-2.74 6.109-6.109V22.182c0-3.364-2.743-6.11-6.109-6.11H106.183zM220.22 178.982H106.183c-5.612 0-10.182-4.567-10.182-10.182V22.182c0-5.61 4.57-10.182 10.182-10.182H220.22c5.612 0 10.181 4.572 10.181 10.182V168.8c0 5.615-4.569 10.182-10.181 10.182z" clip-rule="evenodd"/>
    <path fill="#F7F7F7" fill-rule="evenodd" d="M201.214 14.137H130.62v10.86c0 4.5 3.649 8.146 8.145 8.146h54.303c4.499 0 8.146-3.646 8.146-8.145V14.137z" clip-rule="evenodd"/>
    <path fill="#fff" fill-rule="evenodd" d="M184.923 14.137H130.62v10.86c0 4.5 3.646 8.146 8.145 8.146h35.297c5.998 0 10.861-4.86 10.861-10.86v-8.146z" clip-rule="evenodd"/>
    <path fill="#D9D9D9" fill-rule="evenodd" d="M132.656 16.174v8.824c0 3.37 2.742 6.109 6.109 6.109h54.303c3.367 0 6.109-2.74 6.109-6.11v-8.823h-66.521zm60.412 19.006h-54.303c-5.612 0-10.182-4.567-10.182-10.182v-10.86c0-1.122.91-2.037 2.037-2.037h70.593c1.125 0 2.037.915 2.037 2.036v10.86c0 5.616-4.57 10.183-10.182 10.183z" clip-rule="evenodd"/>
    <path fill="#F7F7F7" fill-rule="evenodd" d="M119.812 65.638l5.43-.028c2.998-.013 5.42-2.454 5.403-5.454l-.027-5.43c-.011-2.998-2.454-5.42-5.452-5.407l-5.43.028c-3 .013-5.42 2.457-5.406 5.457l.024 5.43c.017 2.998 2.458 5.417 5.458 5.404z" clip-rule="evenodd"/>
    <path fill="#D9D9D9" fill-rule="evenodd" d="M125.194 51.36h-.019l-5.435.02c-1.866.012-3.383 1.543-3.375 3.416l.027 5.428c.005.907.361 1.757 1.004 2.395.644.64 1.518 1.02 2.406.98h.003l5.43-.022c1.868-.01 3.383-1.54 3.375-3.413l-.027-5.427c-.008-.907-.361-1.76-1.005-2.398-.638-.632-1.485-.98-2.384-.98zm-5.411 16.312c-1.982 0-3.845-.763-5.254-2.159-1.414-1.404-2.202-3.274-2.21-5.273l-.027-5.427c-.019-4.114 3.318-7.483 7.431-7.505l5.433-.022c1.947.038 3.869.755 5.287 2.159 1.42 1.406 2.205 3.277 2.213 5.27l.027 5.43c.019 4.12-3.315 7.483-7.432 7.505l-5.43.022h-.038z" clip-rule="evenodd"/>
    <path fill="#F7F7F7" fill-rule="evenodd" d="M119.812 98.222l5.43-.025c2.998-.016 5.42-2.457 5.403-5.457l-.027-5.43c-.011-2.998-2.454-5.42-5.452-5.404l-5.43.025c-3 .016-5.42 2.457-5.406 5.457l.024 5.43c.017 2.998 2.458 5.42 5.458 5.404z" clip-rule="evenodd"/>
    <path fill="#D9D9D9" fill-rule="evenodd" d="M125.189 83.944h-.019l-5.425.027c-.906.002-1.756.36-2.397 1.004-.638.644-.991 1.5-.983 2.403l.027 5.43c.006.907.361 1.754 1.005 2.395.641.636 1.49.986 2.389.986h.016l5.431-.027c.907-.006 1.756-.361 2.392-1.005.641-.643.991-1.501.985-2.408l-.027-5.428c-.008-.907-.361-1.757-1.004-2.394-.638-.636-1.488-.983-2.39-.983zm-5.403 16.318c-1.982 0-3.845-.766-5.256-2.164-1.415-1.407-2.202-3.275-2.211-5.273l-.027-5.428c-.019-4.116 3.318-7.48 7.434-7.499l5.428-.027h.035c1.982 0 3.848.766 5.254 2.161 1.42 1.404 2.205 3.275 2.213 5.27l.027 5.425c.008 2.001-.76 3.877-2.161 5.297-1.407 1.415-3.275 2.202-5.273 2.21l-5.43.028c0-.003-.017 0-.033 0z" clip-rule="evenodd"/>
    <path fill="#F7F7F7" fill-rule="evenodd" d="M119.812 130.807l5.43-.025c2.998-.016 5.42-2.457 5.403-5.457l-.027-5.431c-.011-2.997-2.454-5.416-5.452-5.403l-5.43.025c-3 .016-5.42 2.457-5.406 5.457l.024 5.43c.017 2.998 2.458 5.42 5.458 5.404z" clip-rule="evenodd"/>
    <path fill="#D9D9D9" fill-rule="evenodd" d="M125.189 116.528h-.019l-5.425.027c-.906.005-1.756.361-2.397 1.005-.638.643-.991 1.501-.983 2.408l.027 5.427c.006.907.361 1.757 1.005 2.393.643.635 1.496 1.107 2.405.985l5.431-.027c.907-.005 1.756-.361 2.392-1.005.641-.643.991-1.498.985-2.405l-.027-5.428c-.008-.909-.361-1.757-1.004-2.397-.638-.633-1.488-.983-2.39-.983zm-5.403 16.318c-1.982 0-3.845-.769-5.256-2.161-1.415-1.407-2.202-3.275-2.211-5.273l-.027-5.428c-.008-1.995.758-3.872 2.164-5.292 1.404-1.414 3.275-2.202 5.27-2.21l5.428-.027h.035c4.1 0 7.448 3.329 7.467 7.434l.027 5.428c.008 1.998-.76 3.874-2.161 5.292-1.407 1.417-3.275 2.202-5.273 2.21l-5.43.027h-.033z" clip-rule="evenodd"/>
    <path fill="#F7F7F7" fill-rule="evenodd" d="M119.812 163.394l5.43-.028c2.998-.013 5.42-2.457 5.403-5.457l-.027-5.43c-.011-2.998-2.454-5.417-5.452-5.404l-5.43.028c-3 .013-5.42 2.454-5.406 5.454l.024 5.431c.017 2.997 2.458 5.419 5.458 5.406z" clip-rule="evenodd"/>
    <path fill="#D9D9D9" fill-rule="evenodd" d="M125.194 149.115h-.019l-5.435.022c-1.866.011-3.383 1.542-3.375 3.416l.027 5.427c.005.907.361 1.757 1.004 2.392.641.633 1.491.983 2.39.983h.016l5.43-.024c.907-.006 1.757-.361 2.395-1.005.638-.643.988-1.499.983-2.406l-.027-5.427c-.008-.907-.361-1.76-1.005-2.398-.638-.632-1.485-.98-2.384-.98zm-5.408 16.313c-1.982 0-3.845-.763-5.257-2.159-1.414-1.406-2.202-3.274-2.21-5.273l-.027-5.427c-.019-4.116 3.318-7.48 7.431-7.505l5.433-.022c1.947.055 3.869.758 5.287 2.159 1.42 1.406 2.204 3.277 2.213 5.273l.027 5.427c.008 1.996-.758 3.872-2.161 5.292-1.407 1.418-3.275 2.202-5.271 2.21l-5.43.025c0-.003-.019 0-.035 0zM206.644 53.395H182.21c-1.124 0-2.036-.912-2.036-2.036s.912-2.036 2.036-2.036h24.434c1.124 0 2.036.912 2.036 2.036s-.912 2.036-2.036 2.036zM171.347 53.395H141.48c-1.127 0-2.036-.912-2.036-2.036s.909-2.036 2.036-2.036h29.867c1.124 0 2.036.912 2.036 2.036s-.912 2.036-2.036 2.036zM187.64 65.614h-19.009c-1.126 0-2.036-.913-2.036-2.037 0-1.124.91-2.036 2.036-2.036h19.009c1.122 0 2.037.912 2.037 2.036s-.915 2.037-2.037 2.037zM157.771 65.614H141.48c-1.127 0-2.036-.913-2.036-2.037 0-1.124.909-2.036 2.036-2.036h16.291c1.124 0 2.036.912 2.036 2.036s-.912 2.037-2.036 2.037zM184.92 85.98h-20.361c-1.127 0-2.036-.912-2.036-2.036s.909-2.037 2.036-2.037h20.361c1.124 0 2.036.913 2.036 2.037 0 1.124-.912 2.036-2.036 2.036zM153.698 85.98H141.48c-1.127 0-2.036-.912-2.036-2.036s.909-2.037 2.036-2.037h12.218c1.124 0 2.037.913 2.037 2.037 0 1.124-.913 2.036-2.037 2.036zM165.914 98.198H141.48c-1.127 0-2.036-.912-2.036-2.036s.909-2.037 2.036-2.037h24.434c1.124 0 2.036.913 2.036 2.037 0 1.124-.912 2.036-2.036 2.036zM171.344 118.567H141.48c-1.127 0-2.036-.915-2.036-2.036 0-1.125.909-2.037 2.036-2.037h29.864c1.124 0 2.036.912 2.036 2.037 0 1.121-.912 2.036-2.036 2.036zM160.483 130.785H141.48c-1.127 0-2.036-.915-2.036-2.036 0-1.124.909-2.037 2.036-2.037h19.003c1.125 0 2.037.913 2.037 2.037 0 1.121-.912 2.036-2.037 2.036zM171.01 151.151h-29.53c-1.127 0-2.036-.912-2.036-2.036s.909-2.036 2.036-2.036h29.53c1.121 0 2.036.912 2.036 2.036s-.915 2.036-2.036 2.036zM160.483 163.37H141.48c-1.127 0-2.036-.913-2.036-2.037 0-1.124.909-2.036 2.036-2.036h19.003c1.125 0 2.037.912 2.037 2.036s-.912 2.037-2.037 2.037z" clip-rule="evenodd"/>
    <mask id="32lww7yl5a" width="16" height="5" x="258" y="17" maskUnits="userSpaceOnUse">
        <path fill="#fff" d="M258.913 17.531h14.932v4.073h-14.932V17.53z"/>
    </mask>
    <g mask="url(#32lww7yl5a)">
        <path fill="#D9D9D9" fill-rule="evenodd" d="M271.81 21.604h-10.861c-1.124 0-2.036-.91-2.036-2.037 0-1.121.912-2.036 2.036-2.036h10.861c1.121 0 2.036.915 2.036 2.036 0 1.127-.915 2.037-2.036 2.037z" clip-rule="evenodd"/>
    </g>
    <path fill="#D9D9D9" fill-rule="evenodd" d="M266.38 27.034c-1.125 0-2.037-.91-2.037-2.036v-10.86c0-1.122.912-2.037 2.037-2.037 1.121 0 2.036.915 2.036 2.036v10.86c0 1.128-.915 2.037-2.036 2.037zM252.801 48.76h-10.86c-1.127 0-2.037-.912-2.037-2.036s.91-2.036 2.037-2.036h10.86c1.124 0 2.037.912 2.037 2.036s-.913 2.037-2.037 2.037z" clip-rule="evenodd"/>
    <path fill="#D9D9D9" fill-rule="evenodd" d="M247.371 54.19c-1.127 0-2.036-.912-2.036-2.036v-10.86c0-1.124.909-2.037 2.036-2.037 1.124 0 2.036.913 2.036 2.037v10.86c0 1.124-.912 2.037-2.036 2.037z" clip-rule="evenodd"/>
    <mask id="iymfgl4x2b" width="16" height="5" x="258" y="63" maskUnits="userSpaceOnUse">
        <path fill="#fff" d="M258.913 63.697h14.932v4.072h-14.932v-4.073z"/>
    </mask>
    <g mask="url(#iymfgl4x2b)">
        <path fill="#D9D9D9" fill-rule="evenodd" d="M271.81 67.77h-10.861c-1.124 0-2.036-.913-2.036-2.037 0-1.127.912-2.037 2.036-2.037h10.861c1.121 0 2.036.91 2.036 2.037 0 1.124-.915 2.036-2.036 2.036z" clip-rule="evenodd"/>
    </g>
    <path fill="#D9D9D9" fill-rule="evenodd" d="M266.38 73.2c-1.125 0-2.037-.913-2.037-2.037v-10.86c0-1.127.912-2.037 2.037-2.037 1.121 0 2.036.91 2.036 2.037v10.86c0 1.124-.915 2.036-2.036 2.036z" clip-rule="evenodd"/>
</svg>
